<svg width="1156" height="941" viewBox="0 0 1156 941" fill="none" xmlns="http://www.w3.org/2000/svg">
<mask id="mask0" mask-type="alpha" maskUnits="userSpaceOnUse" x="0" y="0" width="1156" height="941">
<rect width="1156" height="941" fill="#C4C4C4"/>
</mask>
<g mask="url(#mask0)">
<rect x="-249" width="1465" height="1225.93" fill="#2B3D69"/>
<g opacity="0.5">
<path d="M1244.76 276.935C1201.8 251.413 1148.95 321.989 1100.31 437.783C1070.02 509.918 1038.65 596.866 1002.64 691.897C963.215 795.874 919.643 906.415 867.651 1011.5C813.427 1121.06 750.821 1222.41 678.065 1290.97C603.153 1361.51 515.173 1394.62 423.717 1372.26C323.301 1347.6 215.989 1257.9 107.097 1122.86C-14.6585 971.78 -138.384 767.766 -271.758 539.051C-230.008 380.789 -219.784 200.369 -235.733 28.5654C-252.872 -155.507 -293.915 -340.235 -336 -530.79C-239.432 -304.085 -146.898 -87.1463 -49.5865 97.7053C41.7208 271.068 136.355 412.794 233.555 501.999C323.543 584.474 416.226 620.337 502.496 612.212C584.583 604.416 661.689 558.952 730.782 496.993C796.475 438.029 854.583 365.607 907.412 295.072C955.984 230.199 999.146 168.035 1039.63 117.893C1107.59 33.7766 1173.23 -9.79999 1226.09 23.7646C1218.1 88.1447 1223.72 176.2 1244.76 276.935Z" fill="url(#paint0_linear)"/>
<path d="M1428.47 820.657C1379.06 654.352 1331.36 509.302 1274.05 439.588C1225.33 380.46 1159.77 403.151 1096.57 477.666C1058.41 522.72 1017.87 581.355 971.598 641.796C921.019 707.9 864.602 775.029 799.839 824.227C730.913 876.543 651.948 906.784 568.151 892.218C476.806 876.215 378.249 805.352 281.719 683.239C261.847 556.407 248.965 431.628 258.464 321.701C267.331 219.284 298.523 130.244 338.804 66.2329C420.185 189.372 503.797 272.011 583.468 309.063C655.982 342.71 725.931 339.222 788.277 314.275C846.404 290.968 898.378 250.264 945.388 209.067C988.477 171.276 1026.96 133.403 1063.04 107.265C1124.6 62.7041 1187.23 68.2435 1234.07 138.614C1289.37 221.828 1335.43 368.561 1383.35 535.44C1385.68 621.485 1407.07 717.665 1428.47 820.657Z" fill="url(#paint1_linear)"/>
<path d="M1379.17 852.622C1335.23 726.611 1280.11 642.453 1224.65 647.254C1194.46 649.921 1161.85 672.407 1127 703.756C1087.68 739.167 1045.13 785.575 996.47 829.931C943.065 878.596 882.763 924.183 814.729 947.284C740.802 972.314 656.93 969.072 569.619 920.982C472.456 867.394 370.424 758.165 270.77 599.698C160.539 424.366 55.1047 194.419 -45.9802 -70.5689C-28.4512 -250.989 96.7246 -339.824 224.354 -371.625C284.321 -180.413 349.325 -13.4105 420.39 113.913C485.153 229.871 554.86 310.377 623.303 350.917C686.69 388.38 749.706 392.77 807.572 379.435C862.26 366.838 912.635 339.592 959.46 313.988C1042.92 268.319 1118.78 233.769 1181.65 276.402C1246.3 320.389 1304.33 443.281 1357.46 599.164C1373.17 687.343 1385.88 774.25 1379.17 852.622Z" fill="url(#paint2_linear)"/>
<path d="M352 287.939C442.824 441.442 540.005 546.444 633.971 601.346C719.646 651.323 802.254 660.309 876.143 647.097C943.49 635.033 1003.49 605.49 1057.01 576.767C1104.88 551.04 1147.3 526.092 1185.83 515.464C1251.34 497.492 1314.8 547.183 1358.91 655.919C1384.93 720.135 1408.41 801.297 1431.61 893.825C1457 995.135 1481.31 1107.48 1506.45 1226.8C1523.64 1167.92 1537.58 1109.45 1535.63 1050.49C1477.73 816.848 1419.82 593.508 1352.76 411.898C1294.22 253.513 1226.99 135.955 1154.99 98.5329C1083.54 61.5216 1002.73 100.626 915.886 123.768C869.953 135.955 821.4 141.207 772.679 120.978C721.133 99.5177 667.988 46.3396 619.193 -38.3105C515.803 35.0556 402.357 114.782 352 287.939Z" fill="url(#paint3_linear)"/>
<path d="M-321.241 -637.023C-205.415 -316.272 -92.8422 -14.7649 26.0321 241.237C135.296 476.353 247.33 665.513 360.516 784.179C461.136 889.551 562.816 935.877 653.881 928.573C737.679 921.762 813.892 872.317 879.994 808.799C941.373 749.753 993.979 679.998 1041.81 618.244C1084.52 563.137 1122.72 515.047 1159.18 487.719C1220.15 442.132 1287.12 485.34 1336.49 591.039C1316.29 480.621 1290.34 377.465 1285.28 282.598C1236.47 164.67 1174.05 95.9821 1112.91 112.354C1078.61 121.586 1042.01 149.488 1002.1 183.176C957.787 220.598 909.568 264.831 854.824 298.519C795.806 334.832 729.165 357.687 657.989 345.008C580.363 331.139 496.324 272.75 414.516 168.117C323.115 51.1744 234.689 -120.013 149.907 -326.612C58.5993 -549.214 -26.0533 -805.133 -111.245 -1075.09C-182.439 -1062.28 -249.47 -1033.15 -289.77 -955.436C-326.204 -884.983 -333.565 -760.941 -321.241 -637.023Z" fill="url(#paint4_linear)"/>
<path d="M116.615 1103.29C228.332 1276.73 342.225 1397.2 451.135 1438.48C549.822 1475.78 646.335 1446.2 728.05 1373.86C806.884 1303.98 874.138 1198.48 932.339 1087.08C987.083 982.202 1032.7 874.737 1074.34 778.393C1111.29 692.922 1143.8 618.612 1175.81 565.352C1202.8 520.504 1230.52 491.617 1256.36 490.468C1307.14 488.375 1357.09 597.398 1402.11 732.396C1375.14 611.226 1349.39 498.551 1343.97 397.57C1295.64 260.973 1242.04 152.031 1184.7 140.871C1155.83 135.331 1124.14 153.139 1092.16 185.76C1055.53 223.182 1017.07 278.904 973.717 341.273C925.443 410.742 872.279 487.144 810.416 553.412C744.352 624.152 668.808 681.515 585.773 698.339C497.105 716.229 398.474 684.552 301.367 596.455C193.85 498.838 87.5977 335.201 -15.532 130.284C44.2676 465.274 141.096 789.144 116.615 1103.29Z" fill="url(#paint5_linear)"/>
<path d="M-231.197 -110.822C-114.033 222.977 -1.46045 535.563 116.484 800.264C223.573 1040.55 332.224 1232.95 441.785 1349.2C537.554 1450.67 635.07 1489.36 720.317 1468.73C799.561 1449.44 870.588 1382.68 931.038 1301.35C988.216 1224.42 1036.01 1136.44 1079.43 1056.27C1118.32 984.5 1152.41 920.653 1185.81 878.185C1214.31 841.994 1244.03 823.16 1270.45 833.049C1297.57 843.266 1324.09 882.822 1348.09 937.518C1364.77 855.412 1370.05 765.304 1358.52 675.32C1307.31 546.929 1241.71 468.885 1176.93 484.519C1140.55 493.341 1101.51 523.213 1058.89 560.675C1011.1 602.693 958.809 653.942 898.842 696.411C833.485 742.695 759.149 777.409 677.842 775.316C588.933 772.896 490.673 723.656 393.269 619.434C284.395 502.737 176.935 320.512 74.4555 92.371C-36.3513 -154.522 -138.236 -445.689 -237.871 -757.125C-271.944 -694.223 -279.714 -583.845 -270.847 -474.617C-260.995 -353.817 -238.521 -233.427 -231.197 -110.822Z" fill="url(#paint6_linear)"/>
</g>
</g>
<defs>
<linearGradient id="paint0_linear" x1="588.126" y1="1354" x2="-356.605" y2="-520.402" gradientUnits="userSpaceOnUse">
<stop stop-color="#6378FE"/>
<stop offset="1" stop-color="#34447A"/>
</linearGradient>
<linearGradient id="paint1_linear" x1="836.164" y1="917.024" x2="912.825" y2="58.081" gradientUnits="userSpaceOnUse">
<stop stop-color="#6378FE"/>
<stop offset="1" stop-color="#2B3D69"/>
</linearGradient>
<linearGradient id="paint2_linear" x1="608.684" y1="941.245" x2="1061.72" y2="57.8161" gradientUnits="userSpaceOnUse">
<stop stop-color="#6378FE"/>
<stop offset="1" stop-color="#34447A"/>
</linearGradient>
<linearGradient id="paint3_linear" x1="921.579" y1="825.479" x2="1359.61" y2="252.004" gradientUnits="userSpaceOnUse">
<stop stop-color="#6378FE"/>
<stop offset="1" stop-color="#34447A"/>
</linearGradient>
<linearGradient id="paint4_linear" x1="471.127" y1="904.508" x2="787.553" y2="-919.137" gradientUnits="userSpaceOnUse">
<stop stop-color="#6378FE"/>
<stop offset="1" stop-color="#2B3D69"/>
</linearGradient>
<linearGradient id="paint5_linear" x1="746.978" y1="1413.15" x2="433.344" y2="28.6112" gradientUnits="userSpaceOnUse">
<stop stop-color="#6378FE"/>
<stop offset="1" stop-color="#34447A"/>
</linearGradient>
<linearGradient id="paint6_linear" x1="440.778" y1="1399.52" x2="1075.16" y2="-253.136" gradientUnits="userSpaceOnUse">
<stop stop-color="#6378FE"/>
<stop offset="1" stop-color="#2B3D69"/>
</linearGradient>
</defs>
</svg>
