<svg width="197" height="197" viewBox="0 0 197 197" fill="none" xmlns="http://www.w3.org/2000/svg">
<path d="M98.5096 185.964L137.536 176.109C159.812 157.612 174.001 129.712 174.001 98.4943C174.001 50.3432 140.252 10.0748 95.1191 0.0512695C42.2846 1.83312 0 45.2254 0 98.4939C0 125.855 11.1582 150.609 29.1698 168.458L98.5096 185.964Z" fill="#CBE2FF"/>
<path d="M171.957 98.5C171.957 130.788 156.42 159.443 132.416 177.407L167.827 168.465C185.84 150.616 197 125.862 197 98.5C197 44.0999 152.9 0 98.4997 0C94.2581 0 90.0787 0.268566 85.9783 0.788769C134.466 6.9404 171.957 48.342 171.957 98.5Z" fill="#BED8FB"/>
<path d="M122.979 37.3038C122.979 32.273 118.901 28.1948 113.87 28.1948H82.4803C70.9023 28.1948 61.5163 37.5808 61.5163 49.1588V72.4344H135.472V49.4889C135.472 44.4581 131.394 40.38 126.363 40.38H126.056C124.357 40.38 122.979 39.0029 122.979 37.3038Z" fill="#365E7D"/>
<path d="M126.363 40.3804H126.056C124.357 40.3804 122.979 39.0029 122.979 37.3038C122.979 32.273 118.901 28.1948 113.871 28.1948H110.429V72.4344H135.472V49.4889C135.472 44.4589 131.394 40.3804 126.363 40.3804Z" fill="#2B4D66"/>
<path d="M163.543 143.27C161.134 140.891 158.156 139.052 154.774 137.981L127.882 129.467L98.5061 128.435L69.1177 129.467L42.2261 137.981C33.1287 140.862 26.9459 149.304 26.9459 158.847V166.194C44.1791 184.404 68.2893 196.039 95.1198 196.944C125.181 190.267 150.191 170.174 163.543 143.27Z" fill="#4A80AA"/>
<path d="M170.054 166.193V158.846C170.054 152.099 166.961 145.905 161.934 141.834C147.655 170.933 119.447 191.957 86.0017 196.208C90.0387 196.72 94.1503 196.993 98.3242 197C102.335 196.994 106.292 196.761 110.184 196.314C133.667 193.539 154.619 182.503 170.054 166.193Z" fill="#407093"/>
<path d="M100.73 195.526C106.689 183.694 122.208 150.098 117.783 129.112L98.5058 121.609L79.2105 129.112C74.6487 150.746 91.2806 185.779 96.787 196.558C98.1114 196.24 99.4261 195.896 100.73 195.526Z" fill="#E4F6FF"/>
<path d="M110.888 186.146L103.072 155.396H93.9271L86.1302 186.062L95.7716 196.796C98.2191 196.235 100.633 195.585 103.009 194.85L110.888 186.146Z" fill="#E28086"/>
<path d="M95.9228 196.964C96.7211 196.985 97.5211 197 98.3241 197.001C99.2533 197 100.179 196.983 101.103 196.958L106.069 191.471C102.16 192.842 98.139 193.974 94.0224 194.849L95.9228 196.964Z" fill="#DD636E"/>
<path d="M114.958 126.274V108.934H82.0296V126.274C82.0296 135.367 98.4938 145.299 98.4938 145.299C98.4938 145.299 114.958 135.367 114.958 126.274Z" fill="#FFDDCE"/>
<path d="M135.472 69.3805H129.177C125.677 69.3805 122.839 66.5429 122.839 63.0423V59.5736C122.839 55.0138 118.378 51.7898 114.048 53.2208C103.951 56.5582 93.0483 56.559 82.9505 53.2231L82.9385 53.2192C78.6092 51.7891 74.1486 55.013 74.1486 59.5725V63.0427C74.1486 66.5433 71.3109 69.3809 67.8103 69.3809H61.5163V79.7457C61.5163 82.3941 63.6633 84.5414 66.312 84.5414C67.1478 84.5414 67.8276 85.1959 67.8803 86.0301C68.8915 102.062 82.2071 114.754 98.4942 114.754C114.781 114.754 128.097 102.062 129.108 86.0301C129.161 85.1963 129.841 84.5414 130.676 84.5414C133.325 84.5414 135.472 82.3944 135.472 79.7457V69.3805H135.472Z" fill="#FFDDCE"/>
<path d="M129.178 69.3803C125.677 69.3803 122.839 66.5427 122.839 63.0421V59.5734C122.839 55.0135 118.378 51.7896 114.049 53.2205C112.853 53.6157 111.645 53.9604 110.429 54.2621V88.4955C110.261 99.6337 104.157 109.327 95.1443 114.566C96.2452 114.686 97.3618 114.753 98.4941 114.753C114.781 114.753 128.097 102.062 129.108 86.0291C129.161 85.1953 129.841 84.5405 130.676 84.5405C133.325 84.5405 135.472 82.3935 135.472 79.7448V69.3799H129.178V69.3803Z" fill="#FFCBBE"/>
<path d="M82.0294 121.609L69.1175 132.101L82.6581 148.843C84.3053 150.447 86.8979 150.545 88.6624 149.072L98.8452 140.566L82.0294 121.609Z" fill="#F4FBFF"/>
<path d="M114.964 121.609L98.8455 140.566L108.416 148.749C110.169 150.248 112.774 150.172 114.438 148.574L127.882 132.101L114.964 121.609Z" fill="#F4FBFF"/>
<path d="M82.0296 121.609L63.0776 130.92C61.6347 131.629 61.0553 133.384 61.7921 134.813L65.5051 142.012C66.4674 143.877 66.1123 146.151 64.6271 147.633C63.8625 148.396 63.0345 149.223 62.3169 149.939C61.0326 151.221 60.5712 153.116 61.1369 154.84C65.6198 168.506 87.1951 189.403 95.3602 196.963C95.9093 196.978 96.4595 196.988 97.0109 196.994C91.0897 185.477 70.1073 141.721 82.0296 121.609Z" fill="#365E7D"/>
<path d="M132.367 147.633C130.881 146.15 130.527 143.877 131.489 142.012L135.202 134.813C135.939 133.384 135.359 131.629 133.916 130.92L114.964 121.609C126.884 141.715 105.916 185.453 99.9881 196.985C100.545 196.975 101.101 196.962 101.656 196.943C109.838 189.365 131.378 168.493 135.857 154.84C136.423 153.116 135.961 151.222 134.677 149.94C133.959 149.223 133.131 148.396 132.367 147.633Z" fill="#365E7D"/>
<path d="M98.8456 140.566L88.8186 148.94L93.9275 155.397H103.072L108.182 148.559L98.8456 140.566Z" fill="#DD636E"/>
</svg>
