<svg width="722" height="821" viewBox="0 0 722 821" fill="none" xmlns="http://www.w3.org/2000/svg">
<rect width="722" height="821" fill="#E0ECFB"/>
<path d="M28.9551 30.23L25.235 45.3681L13.9851 34.5774L28.9551 30.23Z" fill="#2B3D69" fill-opacity="0.03"/>
<path d="M280.955 30.23L277.235 45.3681L265.985 34.5774L280.955 30.23Z" fill="#2B3D69" fill-opacity="0.03"/>
<path d="M532.955 30.23L529.235 45.3681L517.985 34.5774L532.955 30.23Z" fill="#2B3D69" fill-opacity="0.03"/>
<path d="M84.5111 29.3896L98.6851 35.8779L85.979 44.9088L84.5111 29.3896Z" fill="#2B3D69" fill-opacity="0.03"/>
<path d="M336.511 29.3896L350.685 35.8779L337.979 44.9088L336.511 29.3896Z" fill="#2B3D69" fill-opacity="0.03"/>
<path d="M588.511 29.3896L602.685 35.8779L589.979 44.9088L588.511 29.3896Z" fill="#2B3D69" fill-opacity="0.03"/>
<path d="M154.189 28.0405L165.252 39.0232L150.209 43.1123L154.189 28.0405Z" fill="#2B3D69" fill-opacity="0.03"/>
<path d="M406.189 28.0405L417.251 39.0232L402.209 43.1123L406.189 28.0405Z" fill="#2B3D69" fill-opacity="0.03"/>
<path d="M658.189 28.0405L669.251 39.0232L654.209 43.1123L658.189 28.0405Z" fill="#2B3D69" fill-opacity="0.03"/>
<path d="M228.523 39.7477L213.189 42.5552L218.425 27.8722L228.523 39.7477Z" fill="#2B3D69" fill-opacity="0.03"/>
<path d="M480.523 39.7477L465.189 42.5552L470.425 27.8722L480.523 39.7477Z" fill="#2B3D69" fill-opacity="0.03"/>
<path d="M732.523 39.7477L717.189 42.5552L722.425 27.8722L732.523 39.7477Z" fill="#2B3D69" fill-opacity="0.03"/>
<path d="M28.9551 202.23L25.235 217.368L13.9851 206.577L28.9551 202.23Z" fill="#2B3D69" fill-opacity="0.03"/>
<path d="M280.955 202.23L277.235 217.368L265.985 206.577L280.955 202.23Z" fill="#2B3D69" fill-opacity="0.03"/>
<path d="M532.955 202.23L529.235 217.368L517.985 206.577L532.955 202.23Z" fill="#2B3D69" fill-opacity="0.03"/>
<path d="M84.5111 201.39L98.6851 207.878L85.979 216.909L84.5111 201.39Z" fill="#2B3D69" fill-opacity="0.03"/>
<path d="M336.511 201.39L350.685 207.878L337.979 216.909L336.511 201.39Z" fill="#2B3D69" fill-opacity="0.03"/>
<path d="M588.511 201.39L602.685 207.878L589.979 216.909L588.511 201.39Z" fill="#2B3D69" fill-opacity="0.03"/>
<path d="M154.189 200.041L165.252 211.023L150.209 215.112L154.189 200.041Z" fill="#2B3D69" fill-opacity="0.03"/>
<path d="M406.189 200.041L417.251 211.023L402.209 215.112L406.189 200.041Z" fill="#2B3D69" fill-opacity="0.03"/>
<path d="M658.189 200.041L669.251 211.023L654.209 215.112L658.189 200.041Z" fill="#2B3D69" fill-opacity="0.03"/>
<path d="M228.523 211.748L213.189 214.555L218.425 199.872L228.523 211.748Z" fill="#2B3D69" fill-opacity="0.03"/>
<path d="M480.523 211.748L465.189 214.555L470.425 199.872L480.523 211.748Z" fill="#2B3D69" fill-opacity="0.03"/>
<path d="M732.523 211.748L717.189 214.555L722.425 199.872L732.523 211.748Z" fill="#2B3D69" fill-opacity="0.03"/>
<path d="M28.9551 374.23L25.235 389.368L13.9851 378.577L28.9551 374.23Z" fill="#2B3D69" fill-opacity="0.03"/>
<path d="M280.955 374.23L277.235 389.368L265.985 378.577L280.955 374.23Z" fill="#2B3D69" fill-opacity="0.03"/>
<path d="M532.955 374.23L529.235 389.368L517.985 378.577L532.955 374.23Z" fill="#2B3D69" fill-opacity="0.03"/>
<path d="M84.5111 373.39L98.6851 379.878L85.979 388.909L84.5111 373.39Z" fill="#2B3D69" fill-opacity="0.03"/>
<path d="M336.511 373.39L350.685 379.878L337.979 388.909L336.511 373.39Z" fill="#2B3D69" fill-opacity="0.03"/>
<path d="M588.511 373.39L602.685 379.878L589.979 388.909L588.511 373.39Z" fill="#2B3D69" fill-opacity="0.03"/>
<path d="M154.189 372.041L165.252 383.023L150.209 387.112L154.189 372.041Z" fill="#2B3D69" fill-opacity="0.03"/>
<path d="M406.189 372.041L417.251 383.023L402.209 387.112L406.189 372.041Z" fill="#2B3D69" fill-opacity="0.03"/>
<path d="M658.189 372.041L669.251 383.023L654.209 387.112L658.189 372.041Z" fill="#2B3D69" fill-opacity="0.03"/>
<path d="M228.523 383.748L213.189 386.555L218.425 371.872L228.523 383.748Z" fill="#2B3D69" fill-opacity="0.03"/>
<path d="M480.523 383.748L465.189 386.555L470.425 371.872L480.523 383.748Z" fill="#2B3D69" fill-opacity="0.03"/>
<path d="M732.523 383.748L717.189 386.555L722.425 371.872L732.523 383.748Z" fill="#2B3D69" fill-opacity="0.03"/>
<path d="M28.9551 546.23L25.235 561.368L13.9851 550.577L28.9551 546.23Z" fill="#2B3D69" fill-opacity="0.03"/>
<path d="M280.955 546.23L277.235 561.368L265.985 550.577L280.955 546.23Z" fill="#2B3D69" fill-opacity="0.03"/>
<path d="M532.955 546.23L529.235 561.368L517.985 550.577L532.955 546.23Z" fill="#2B3D69" fill-opacity="0.03"/>
<path d="M84.5111 545.39L98.6851 551.878L85.979 560.909L84.5111 545.39Z" fill="#2B3D69" fill-opacity="0.03"/>
<path d="M336.511 545.39L350.685 551.878L337.979 560.909L336.511 545.39Z" fill="#2B3D69" fill-opacity="0.03"/>
<path d="M588.511 545.39L602.685 551.878L589.979 560.909L588.511 545.39Z" fill="#2B3D69" fill-opacity="0.03"/>
<path d="M154.189 544.041L165.252 555.023L150.209 559.112L154.189 544.041Z" fill="#2B3D69" fill-opacity="0.03"/>
<path d="M406.189 544.041L417.251 555.023L402.209 559.112L406.189 544.041Z" fill="#2B3D69" fill-opacity="0.03"/>
<path d="M658.189 544.041L669.251 555.023L654.209 559.112L658.189 544.041Z" fill="#2B3D69" fill-opacity="0.03"/>
<path d="M228.523 555.748L213.189 558.555L218.425 543.872L228.523 555.748Z" fill="#2B3D69" fill-opacity="0.03"/>
<path d="M480.523 555.748L465.189 558.555L470.425 543.872L480.523 555.748Z" fill="#2B3D69" fill-opacity="0.03"/>
<path d="M732.523 555.748L717.189 558.555L722.425 543.872L732.523 555.748Z" fill="#2B3D69" fill-opacity="0.03"/>
<path d="M28.9551 718.23L25.235 733.368L13.9851 722.577L28.9551 718.23Z" fill="#2B3D69" fill-opacity="0.03"/>
<path d="M280.955 718.23L277.235 733.368L265.985 722.577L280.955 718.23Z" fill="#2B3D69" fill-opacity="0.03"/>
<path d="M532.955 718.23L529.235 733.368L517.985 722.577L532.955 718.23Z" fill="#2B3D69" fill-opacity="0.03"/>
<path d="M84.5111 717.389L98.6851 723.878L85.979 732.909L84.5111 717.389Z" fill="#2B3D69" fill-opacity="0.03"/>
<path d="M336.511 717.389L350.685 723.878L337.979 732.909L336.511 717.389Z" fill="#2B3D69" fill-opacity="0.03"/>
<path d="M588.511 717.389L602.685 723.878L589.979 732.909L588.511 717.389Z" fill="#2B3D69" fill-opacity="0.03"/>
<path d="M154.189 716.04L165.252 727.023L150.209 731.112L154.189 716.04Z" fill="#2B3D69" fill-opacity="0.03"/>
<path d="M406.189 716.04L417.251 727.023L402.209 731.112L406.189 716.04Z" fill="#2B3D69" fill-opacity="0.03"/>
<path d="M658.189 716.04L669.251 727.023L654.209 731.112L658.189 716.04Z" fill="#2B3D69" fill-opacity="0.03"/>
<path d="M228.523 727.748L213.189 730.555L218.425 715.872L228.523 727.748Z" fill="#2B3D69" fill-opacity="0.03"/>
<path d="M480.523 727.748L465.189 730.555L470.425 715.872L480.523 727.748Z" fill="#2B3D69" fill-opacity="0.03"/>
<path d="M732.523 727.748L717.189 730.555L722.425 715.872L732.523 727.748Z" fill="#2B3D69" fill-opacity="0.03"/>
<path d="M68.9551 85.23L65.235 100.368L53.9851 89.5774L68.9551 85.23Z" fill="#2B3D69" fill-opacity="0.03"/>
<path d="M320.955 85.23L317.235 100.368L305.985 89.5774L320.955 85.23Z" fill="#2B3D69" fill-opacity="0.03"/>
<path d="M572.955 85.23L569.235 100.368L557.985 89.5774L572.955 85.23Z" fill="#2B3D69" fill-opacity="0.03"/>
<path d="M124.511 84.3896L138.685 90.8779L125.979 99.9088L124.511 84.3896Z" fill="#2B3D69" fill-opacity="0.03"/>
<path d="M376.511 84.3896L390.685 90.8779L377.979 99.9088L376.511 84.3896Z" fill="#2B3D69" fill-opacity="0.03"/>
<path d="M628.511 84.3896L642.685 90.8779L629.979 99.9088L628.511 84.3896Z" fill="#2B3D69" fill-opacity="0.03"/>
<path d="M194.189 83.0405L205.252 94.0232L190.209 98.1123L194.189 83.0405Z" fill="#2B3D69" fill-opacity="0.03"/>
<path d="M446.189 83.0405L457.251 94.0232L442.209 98.1123L446.189 83.0405Z" fill="#2B3D69" fill-opacity="0.03"/>
<path d="M698.189 83.0405L709.251 94.0232L694.209 98.1123L698.189 83.0405Z" fill="#2B3D69" fill-opacity="0.03"/>
<path d="M268.523 94.7477L253.189 97.5552L258.425 82.8722L268.523 94.7477Z" fill="#2B3D69" fill-opacity="0.03"/>
<path d="M520.523 94.7477L505.189 97.5552L510.425 82.8722L520.523 94.7477Z" fill="#2B3D69" fill-opacity="0.03"/>
<path d="M68.9551 257.23L65.235 272.368L53.9851 261.577L68.9551 257.23Z" fill="#2B3D69" fill-opacity="0.03"/>
<path d="M320.955 257.23L317.235 272.368L305.985 261.577L320.955 257.23Z" fill="#2B3D69" fill-opacity="0.03"/>
<path d="M572.955 257.23L569.235 272.368L557.985 261.577L572.955 257.23Z" fill="#2B3D69" fill-opacity="0.03"/>
<path d="M124.511 256.39L138.685 262.878L125.979 271.909L124.511 256.39Z" fill="#2B3D69" fill-opacity="0.03"/>
<path d="M376.511 256.39L390.685 262.878L377.979 271.909L376.511 256.39Z" fill="#2B3D69" fill-opacity="0.03"/>
<path d="M628.511 256.39L642.685 262.878L629.979 271.909L628.511 256.39Z" fill="#2B3D69" fill-opacity="0.03"/>
<path d="M194.189 255.041L205.252 266.023L190.209 270.112L194.189 255.041Z" fill="#2B3D69" fill-opacity="0.03"/>
<path d="M446.189 255.041L457.251 266.023L442.209 270.112L446.189 255.041Z" fill="#2B3D69" fill-opacity="0.03"/>
<path d="M698.189 255.041L709.251 266.023L694.209 270.112L698.189 255.041Z" fill="#2B3D69" fill-opacity="0.03"/>
<path d="M268.523 266.748L253.189 269.555L258.425 254.872L268.523 266.748Z" fill="#2B3D69" fill-opacity="0.03"/>
<path d="M520.523 266.748L505.189 269.555L510.425 254.872L520.523 266.748Z" fill="#2B3D69" fill-opacity="0.03"/>
<path d="M68.9551 429.23L65.235 444.368L53.9851 433.577L68.9551 429.23Z" fill="#2B3D69" fill-opacity="0.03"/>
<path d="M320.955 429.23L317.235 444.368L305.985 433.577L320.955 429.23Z" fill="#2B3D69" fill-opacity="0.03"/>
<path d="M572.955 429.23L569.235 444.368L557.985 433.577L572.955 429.23Z" fill="#2B3D69" fill-opacity="0.03"/>
<path d="M124.511 428.39L138.685 434.878L125.979 443.909L124.511 428.39Z" fill="#2B3D69" fill-opacity="0.03"/>
<path d="M376.511 428.39L390.685 434.878L377.979 443.909L376.511 428.39Z" fill="#2B3D69" fill-opacity="0.03"/>
<path d="M628.511 428.39L642.685 434.878L629.979 443.909L628.511 428.39Z" fill="#2B3D69" fill-opacity="0.03"/>
<path d="M194.189 427.041L205.252 438.023L190.209 442.112L194.189 427.041Z" fill="#2B3D69" fill-opacity="0.03"/>
<path d="M446.189 427.041L457.251 438.023L442.209 442.112L446.189 427.041Z" fill="#2B3D69" fill-opacity="0.03"/>
<path d="M698.189 427.041L709.251 438.023L694.209 442.112L698.189 427.041Z" fill="#2B3D69" fill-opacity="0.03"/>
<path d="M268.523 438.748L253.189 441.555L258.425 426.872L268.523 438.748Z" fill="#2B3D69" fill-opacity="0.03"/>
<path d="M520.523 438.748L505.189 441.555L510.425 426.872L520.523 438.748Z" fill="#2B3D69" fill-opacity="0.03"/>
<path d="M68.9551 601.23L65.235 616.368L53.9851 605.577L68.9551 601.23Z" fill="#2B3D69" fill-opacity="0.03"/>
<path d="M320.955 601.23L317.235 616.368L305.985 605.577L320.955 601.23Z" fill="#2B3D69" fill-opacity="0.03"/>
<path d="M572.955 601.23L569.235 616.368L557.985 605.577L572.955 601.23Z" fill="#2B3D69" fill-opacity="0.03"/>
<path d="M124.511 600.39L138.685 606.878L125.979 615.909L124.511 600.39Z" fill="#2B3D69" fill-opacity="0.03"/>
<path d="M376.511 600.39L390.685 606.878L377.979 615.909L376.511 600.39Z" fill="#2B3D69" fill-opacity="0.03"/>
<path d="M628.511 600.39L642.685 606.878L629.979 615.909L628.511 600.39Z" fill="#2B3D69" fill-opacity="0.03"/>
<path d="M194.189 599.041L205.252 610.023L190.209 614.112L194.189 599.041Z" fill="#2B3D69" fill-opacity="0.03"/>
<path d="M446.189 599.041L457.251 610.023L442.209 614.112L446.189 599.041Z" fill="#2B3D69" fill-opacity="0.03"/>
<path d="M698.189 599.041L709.251 610.023L694.209 614.112L698.189 599.041Z" fill="#2B3D69" fill-opacity="0.03"/>
<path d="M268.523 610.748L253.189 613.555L258.425 598.872L268.523 610.748Z" fill="#2B3D69" fill-opacity="0.03"/>
<path d="M520.523 610.748L505.189 613.555L510.425 598.872L520.523 610.748Z" fill="#2B3D69" fill-opacity="0.03"/>
<path d="M68.9551 773.23L65.235 788.368L53.9851 777.577L68.9551 773.23Z" fill="#2B3D69" fill-opacity="0.03"/>
<path d="M320.955 773.23L317.235 788.368L305.985 777.577L320.955 773.23Z" fill="#2B3D69" fill-opacity="0.03"/>
<path d="M572.955 773.23L569.235 788.368L557.985 777.577L572.955 773.23Z" fill="#2B3D69" fill-opacity="0.03"/>
<path d="M124.511 772.389L138.685 778.878L125.979 787.909L124.511 772.389Z" fill="#2B3D69" fill-opacity="0.03"/>
<path d="M376.511 772.389L390.685 778.878L377.979 787.909L376.511 772.389Z" fill="#2B3D69" fill-opacity="0.03"/>
<path d="M628.511 772.389L642.685 778.878L629.979 787.909L628.511 772.389Z" fill="#2B3D69" fill-opacity="0.03"/>
<path d="M194.189 771.04L205.252 782.023L190.209 786.112L194.189 771.04Z" fill="#2B3D69" fill-opacity="0.03"/>
<path d="M446.189 771.04L457.251 782.023L442.209 786.112L446.189 771.04Z" fill="#2B3D69" fill-opacity="0.03"/>
<path d="M698.189 771.04L709.251 782.023L694.209 786.112L698.189 771.04Z" fill="#2B3D69" fill-opacity="0.03"/>
<path d="M268.523 782.748L253.189 785.555L258.425 770.872L268.523 782.748Z" fill="#2B3D69" fill-opacity="0.03"/>
<path d="M520.523 782.748L505.189 785.555L510.425 770.872L520.523 782.748Z" fill="#2B3D69" fill-opacity="0.03"/>
<path d="M28.9551 147.23L25.235 162.368L13.9851 151.577L28.9551 147.23Z" fill="#2B3D69" fill-opacity="0.03"/>
<path d="M280.955 147.23L277.235 162.368L265.985 151.577L280.955 147.23Z" fill="#2B3D69" fill-opacity="0.03"/>
<path d="M532.955 147.23L529.235 162.368L517.985 151.577L532.955 147.23Z" fill="#2B3D69" fill-opacity="0.03"/>
<path d="M84.5111 146.39L98.6851 152.878L85.979 161.909L84.5111 146.39Z" fill="#2B3D69" fill-opacity="0.03"/>
<path d="M336.511 146.39L350.685 152.878L337.979 161.909L336.511 146.39Z" fill="#2B3D69" fill-opacity="0.03"/>
<path d="M588.511 146.39L602.685 152.878L589.979 161.909L588.511 146.39Z" fill="#2B3D69" fill-opacity="0.03"/>
<path d="M154.189 145.041L165.252 156.023L150.209 160.112L154.189 145.041Z" fill="#2B3D69" fill-opacity="0.03"/>
<path d="M406.189 145.041L417.251 156.023L402.209 160.112L406.189 145.041Z" fill="#2B3D69" fill-opacity="0.03"/>
<path d="M658.189 145.041L669.251 156.023L654.209 160.112L658.189 145.041Z" fill="#2B3D69" fill-opacity="0.03"/>
<path d="M228.523 156.748L213.189 159.555L218.425 144.872L228.523 156.748Z" fill="#2B3D69" fill-opacity="0.03"/>
<path d="M480.523 156.748L465.189 159.555L470.425 144.872L480.523 156.748Z" fill="#2B3D69" fill-opacity="0.03"/>
<path d="M732.523 156.748L717.189 159.555L722.425 144.872L732.523 156.748Z" fill="#2B3D69" fill-opacity="0.03"/>
<path d="M28.9551 319.23L25.235 334.368L13.9851 323.577L28.9551 319.23Z" fill="#2B3D69" fill-opacity="0.03"/>
<path d="M280.955 319.23L277.235 334.368L265.985 323.577L280.955 319.23Z" fill="#2B3D69" fill-opacity="0.03"/>
<path d="M532.955 319.23L529.235 334.368L517.985 323.577L532.955 319.23Z" fill="#2B3D69" fill-opacity="0.03"/>
<path d="M84.5111 318.39L98.6851 324.878L85.979 333.909L84.5111 318.39Z" fill="#2B3D69" fill-opacity="0.03"/>
<path d="M336.511 318.39L350.685 324.878L337.979 333.909L336.511 318.39Z" fill="#2B3D69" fill-opacity="0.03"/>
<path d="M588.511 318.39L602.685 324.878L589.979 333.909L588.511 318.39Z" fill="#2B3D69" fill-opacity="0.03"/>
<path d="M154.189 317.041L165.252 328.023L150.209 332.112L154.189 317.041Z" fill="#2B3D69" fill-opacity="0.03"/>
<path d="M406.189 317.041L417.251 328.023L402.209 332.112L406.189 317.041Z" fill="#2B3D69" fill-opacity="0.03"/>
<path d="M658.189 317.041L669.251 328.023L654.209 332.112L658.189 317.041Z" fill="#2B3D69" fill-opacity="0.03"/>
<path d="M228.523 328.748L213.189 331.555L218.425 316.872L228.523 328.748Z" fill="#2B3D69" fill-opacity="0.03"/>
<path d="M480.523 328.748L465.189 331.555L470.425 316.872L480.523 328.748Z" fill="#2B3D69" fill-opacity="0.03"/>
<path d="M732.523 328.748L717.189 331.555L722.425 316.872L732.523 328.748Z" fill="#2B3D69" fill-opacity="0.03"/>
<path d="M28.9551 491.23L25.235 506.368L13.9851 495.577L28.9551 491.23Z" fill="#2B3D69" fill-opacity="0.03"/>
<path d="M280.955 491.23L277.235 506.368L265.985 495.577L280.955 491.23Z" fill="#2B3D69" fill-opacity="0.03"/>
<path d="M532.955 491.23L529.235 506.368L517.985 495.577L532.955 491.23Z" fill="#2B3D69" fill-opacity="0.03"/>
<path d="M84.5111 490.39L98.6851 496.878L85.979 505.909L84.5111 490.39Z" fill="#2B3D69" fill-opacity="0.03"/>
<path d="M336.511 490.39L350.685 496.878L337.979 505.909L336.511 490.39Z" fill="#2B3D69" fill-opacity="0.03"/>
<path d="M588.511 490.39L602.685 496.878L589.979 505.909L588.511 490.39Z" fill="#2B3D69" fill-opacity="0.03"/>
<path d="M154.189 489.041L165.252 500.023L150.209 504.112L154.189 489.041Z" fill="#2B3D69" fill-opacity="0.03"/>
<path d="M406.189 489.041L417.251 500.023L402.209 504.112L406.189 489.041Z" fill="#2B3D69" fill-opacity="0.03"/>
<path d="M658.189 489.041L669.251 500.023L654.209 504.112L658.189 489.041Z" fill="#2B3D69" fill-opacity="0.03"/>
<path d="M228.523 500.748L213.189 503.555L218.425 488.872L228.523 500.748Z" fill="#2B3D69" fill-opacity="0.03"/>
<path d="M480.523 500.748L465.189 503.555L470.425 488.872L480.523 500.748Z" fill="#2B3D69" fill-opacity="0.03"/>
<path d="M732.523 500.748L717.189 503.555L722.425 488.872L732.523 500.748Z" fill="#2B3D69" fill-opacity="0.03"/>
<path d="M28.9551 663.23L25.235 678.368L13.9851 667.577L28.9551 663.23Z" fill="#2B3D69" fill-opacity="0.03"/>
<path d="M280.955 663.23L277.235 678.368L265.985 667.577L280.955 663.23Z" fill="#2B3D69" fill-opacity="0.03"/>
<path d="M532.955 663.23L529.235 678.368L517.985 667.577L532.955 663.23Z" fill="#2B3D69" fill-opacity="0.03"/>
<path d="M84.5111 662.389L98.6851 668.878L85.979 677.909L84.5111 662.389Z" fill="#2B3D69" fill-opacity="0.03"/>
<path d="M336.511 662.389L350.685 668.878L337.979 677.909L336.511 662.389Z" fill="#2B3D69" fill-opacity="0.03"/>
<path d="M588.511 662.389L602.685 668.878L589.979 677.909L588.511 662.389Z" fill="#2B3D69" fill-opacity="0.03"/>
<path d="M154.189 661.04L165.252 672.023L150.209 676.112L154.189 661.04Z" fill="#2B3D69" fill-opacity="0.03"/>
<path d="M406.189 661.04L417.251 672.023L402.209 676.112L406.189 661.04Z" fill="#2B3D69" fill-opacity="0.03"/>
<path d="M658.189 661.04L669.251 672.023L654.209 676.112L658.189 661.04Z" fill="#2B3D69" fill-opacity="0.03"/>
<path d="M228.523 672.748L213.189 675.555L218.425 660.872L228.523 672.748Z" fill="#2B3D69" fill-opacity="0.03"/>
<path d="M480.523 672.748L465.189 675.555L470.425 660.872L480.523 672.748Z" fill="#2B3D69" fill-opacity="0.03"/>
<path d="M732.523 672.748L717.189 675.555L722.425 660.872L732.523 672.748Z" fill="#2B3D69" fill-opacity="0.03"/>
</svg>
