<svg width="14" height="17" viewBox="0 0 14 17" fill="none" xmlns="http://www.w3.org/2000/svg">
<path d="M13.9279 7.99286C14.1579 6.91995 13.8301 5.81796 13.0513 5.04503C12.2725 4.2721 11.1682 3.95276 10.097 4.19079L9.67663 4.28422C9.37591 3.94531 9.01267 3.66555 8.6011 3.45975C8.24784 3.28314 7.87045 3.16904 7.48593 3.11689V1.86809H8.38215V0.896255H7.48593V0H6.51409V0.896255H5.61784V1.86809H6.51409V3.11689C6.12957 3.16904 5.75215 3.28314 5.39892 3.45975C4.98735 3.66552 4.62411 3.94531 4.32339 4.28419L3.90304 4.19076C2.83199 3.95273 1.72747 4.27207 0.948678 5.045C0.169853 5.81793 -0.157849 6.91992 0.0720541 7.99282L0.795129 11.3672V13.8863C0.488224 14.1851 0.297065 14.6022 0.297065 15.0633C0.297065 15.9028 0.980068 16.5858 1.8196 16.5858H12.1199C12.9927 16.5858 13.7029 15.8757 13.7029 15.0028C13.7029 14.5496 13.5111 14.1405 13.2048 13.8517V11.3672L13.9279 7.99286ZM10.4191 11.4097C10.2446 11.7041 10.1439 12.0473 10.1439 12.4137C10.1439 12.781 10.245 13.1249 10.4202 13.4199H8.97594V11.4097H10.4191ZM5.83352 4.32899C6.56395 3.96381 7.43607 3.96381 8.16647 4.32899C9.12595 4.80872 9.68842 5.80948 9.59927 6.87852L9.30267 10.4378H4.69732L4.40072 6.87852C4.31163 5.80948 4.87403 4.80872 5.83352 4.32899ZM8.00411 11.4097V13.4178H5.99588V11.4097H8.00411ZM5.02408 11.4097V13.4199H3.57981C3.75507 13.1249 3.85607 12.781 3.85607 12.4137C3.85607 12.0473 3.75546 11.7041 3.58095 11.4097H5.02408ZM1.63327 5.73481C2.17604 5.19612 3.00598 4.98481 3.75248 5.1507L3.75338 5.15307C3.49105 5.71637 3.38026 6.33533 3.43226 6.95925L3.72212 10.4379H1.58986L1.02231 7.78926C0.862088 7.0415 1.09047 6.27349 1.63327 5.73481ZM2.84543 12.4167C2.84692 12.9748 2.39541 13.4282 1.83732 13.4291L1.8357 11.4097C2.3923 11.4097 2.84394 11.8601 2.84543 12.4167ZM12.1199 15.6141H1.81963C1.51597 15.6141 1.26893 15.367 1.26893 15.0634C1.26893 14.693 1.57026 14.3917 1.94063 14.3917H12.1199C12.4569 14.3917 12.7311 14.6659 12.7311 15.0029C12.7311 15.3399 12.4569 15.6141 12.1199 15.6141ZM11.1546 12.4167C11.1561 11.8601 11.6077 11.4097 12.1643 11.4097L12.1627 13.4291C11.6046 13.4282 11.1531 12.9748 11.1546 12.4167ZM12.9777 7.78922L12.4101 10.4378H10.2779L10.5677 6.95925C10.6197 6.33533 10.5089 5.71637 10.2466 5.15307L10.2462 5.15206C10.9926 4.98614 11.8239 5.19615 12.3667 5.73484C12.9096 6.27349 13.1379 7.0415 12.9777 7.78922Z" fill="#2B3D69"/>
</svg>
