<svg width="1195" height="612" viewBox="0 0 1195 612" fill="none" xmlns="http://www.w3.org/2000/svg">
<path d="M1010.76 151.339C967.8 140.68 914.952 170.155 866.306 218.516C836.025 248.642 804.647 284.955 768.641 324.644C729.215 368.069 685.643 414.236 633.651 458.123C579.427 503.878 516.821 546.207 444.065 574.842C369.153 604.3 281.173 618.13 189.717 608.79C89.3012 598.491 -18.0109 561.03 -126.903 504.633C-248.658 441.535 -372.384 356.33 -505.758 260.809C-464.008 194.712 -453.784 119.362 -469.733 47.6096C-486.872 -29.2663 -527.915 -106.416 -570 -186C-473.432 -91.3189 -380.898 -0.716278 -283.587 76.4853C-192.279 148.888 -97.6445 208.079 -0.44458 245.335C89.5429 279.78 182.226 294.757 268.496 291.364C350.583 288.108 427.689 269.121 496.782 243.244C562.475 218.618 620.583 188.372 673.412 158.914C721.984 131.82 765.146 105.858 805.632 84.9166C873.592 49.786 939.229 31.5867 992.095 45.6046C984.102 72.4924 989.716 109.268 1010.76 151.339Z" fill="url(#paint0_linear)"/>
<path d="M1194.47 378.42C1145.06 308.964 1097.36 248.385 1040.05 219.27C991.333 194.575 925.771 204.052 862.57 235.173C824.407 253.989 783.865 278.477 737.598 303.72C687.019 331.328 630.602 359.363 565.839 379.911C496.913 401.76 417.948 414.39 334.151 408.306C242.806 401.623 144.249 372.028 47.7187 321.028C27.8474 268.058 14.9655 215.945 24.4643 170.035C33.3311 127.262 64.5228 90.0748 104.804 63.3413C186.185 114.769 269.797 149.283 349.468 164.757C421.982 178.809 491.931 177.353 554.277 166.934C612.404 157.2 664.378 140.2 711.388 122.995C754.477 107.212 792.955 91.3943 829.036 80.4782C890.601 61.8675 953.226 64.181 1000.07 93.5707C1055.37 128.324 1101.43 189.606 1149.35 259.301C1151.68 295.237 1173.07 335.406 1194.47 378.42Z" fill="url(#paint1_linear)"/>
<path d="M1145.17 391.769C1101.23 339.142 1046.11 303.994 990.645 305.999C960.457 307.113 927.853 316.504 892.999 329.597C853.684 344.386 811.135 363.768 762.469 382.293C709.064 402.617 648.763 421.656 580.729 431.304C506.802 441.758 422.93 440.404 335.619 420.319C238.456 397.939 136.423 352.32 36.7697 286.138C-73.4609 212.912 -178.896 116.877 -279.98 6.20724C-262.451 -69.1435 -137.276 -106.245 -9.64612 -119.526C50.3208 -39.6681 115.325 30.0789 186.39 83.2546C251.152 131.683 320.86 165.306 389.303 182.237C452.69 197.883 515.706 199.717 573.572 194.147C628.26 188.886 678.635 177.507 725.46 166.814C808.923 147.741 884.783 133.311 947.65 151.117C1012.3 169.487 1070.33 220.812 1123.46 285.915C1139.17 322.742 1151.88 359.038 1145.17 391.769Z" fill="url(#paint2_linear)"/>
<defs>
<linearGradient id="paint0_linear" x1="354.126" y1="601.164" x2="156.25" y2="-338.873" gradientUnits="userSpaceOnUse">
<stop stop-color="#6378FE"/>
<stop offset="1" stop-color="#34447A"/>
</linearGradient>
<linearGradient id="paint1_linear" x1="602.164" y1="418.666" x2="615.623" y2="57.5809" gradientUnits="userSpaceOnUse">
<stop stop-color="#6378FE"/>
<stop offset="1" stop-color="#2B3D69"/>
</linearGradient>
<linearGradient id="paint2_linear" x1="374.684" y1="428.782" x2="470.108" y2="-16.765" gradientUnits="userSpaceOnUse">
<stop stop-color="#6378FE"/>
<stop offset="1" stop-color="#34447A"/>
</linearGradient>
</defs>
</svg>
