<svg width="1440" height="616" viewBox="0 0 1440 616" fill="none" xmlns="http://www.w3.org/2000/svg">
<path d="M1474.76 115.659C1431.8 105 1378.95 134.476 1330.31 182.836C1300.02 212.962 1268.65 249.275 1232.64 288.964C1193.21 332.389 1149.64 378.556 1097.65 422.443C1043.43 468.199 980.821 510.527 908.065 539.163C833.153 568.621 745.173 582.45 653.717 573.111C553.301 562.811 445.989 525.35 337.097 468.953C215.342 405.855 91.6156 320.65 -41.7577 225.13C-0.0076828 159.033 10.2161 83.682 -5.73296 11.93C-22.8717 -64.946 -63.9154 -142.096 -106 -221.68C-9.43211 -126.999 83.102 -36.396 180.413 40.8056C271.721 113.209 366.355 172.4 463.555 209.655C553.543 244.1 646.226 259.078 732.496 255.685C814.583 252.429 891.689 233.441 960.782 207.564C1026.47 182.939 1084.58 152.692 1137.41 123.234C1185.98 96.1405 1229.15 70.1782 1269.63 49.2369C1337.59 14.1064 1403.23 -4.09299 1456.09 9.92496C1448.1 36.8127 1453.72 73.5884 1474.76 115.659Z" fill="url(#paint0_linear)"/>
<path d="M1658.47 342.74C1609.06 273.284 1561.36 212.705 1504.05 183.59C1455.33 158.896 1389.77 168.372 1326.57 199.493C1288.41 218.309 1247.87 242.798 1201.6 268.04C1151.02 295.648 1094.6 323.684 1029.84 344.231C960.913 366.08 881.948 378.71 798.151 372.627C706.806 365.943 608.249 336.348 511.718 285.349C491.847 232.379 478.965 180.265 488.464 134.356C497.331 91.5821 528.523 54.3951 568.804 27.6616C650.185 79.0893 733.797 113.603 813.468 129.078C885.982 143.13 955.931 141.673 1018.28 131.254C1076.4 121.52 1128.38 104.52 1175.39 87.315C1218.48 71.532 1256.95 55.7147 1293.04 44.7985C1354.6 26.1879 1417.23 28.5013 1464.07 57.891C1519.37 92.6446 1565.43 153.926 1613.35 223.622C1615.68 259.558 1637.07 299.726 1658.47 342.74Z" fill="url(#paint1_linear)"/>
<path d="M1609.17 356.09C1565.23 303.462 1510.11 268.315 1454.64 270.32C1424.46 271.434 1391.85 280.825 1357 293.917C1317.68 308.706 1275.13 328.088 1226.47 346.613C1173.06 366.937 1112.76 385.976 1044.73 395.624C970.802 406.078 886.93 404.724 799.619 384.64C702.456 362.259 600.423 316.641 500.77 250.458C390.539 177.232 285.104 81.1974 184.02 -29.4724C201.549 -104.823 326.724 -141.925 454.354 -155.206C514.321 -75.3478 579.325 -5.60078 650.39 47.5749C715.152 96.0036 784.86 129.626 853.303 146.557C916.69 162.203 979.706 164.037 1037.57 158.467C1092.26 153.206 1142.63 141.828 1189.46 131.134C1272.92 112.061 1348.78 97.6316 1411.65 115.437C1476.3 133.808 1534.33 185.132 1587.46 250.235C1603.17 287.062 1615.88 323.358 1609.17 356.09Z" fill="url(#paint2_linear)"/>
<path d="M582 120.255C672.824 184.364 770.005 228.217 863.971 251.146C949.646 272.019 1032.25 275.772 1106.14 270.254C1173.49 265.216 1233.49 252.877 1287.01 240.882C1334.88 230.137 1377.3 219.717 1415.83 215.279C1481.34 207.773 1544.8 228.526 1588.91 273.939C1614.93 300.758 1638.41 334.654 1661.61 373.298C1687 415.609 1711.31 462.53 1736.45 512.364C1753.64 487.772 1767.58 463.352 1765.63 438.727C1707.73 341.149 1649.82 247.873 1582.76 172.026C1524.22 105.877 1456.99 56.7802 1384.99 41.1514C1313.54 25.694 1232.73 42.0254 1145.89 51.6906C1099.95 56.7802 1051.4 58.9738 1002.68 50.5253C951.133 41.5627 897.988 19.3533 849.193 -16C745.803 14.6407 632.357 47.9376 582 120.255Z" fill="url(#paint3_linear)"/>
<path d="M-91.2406 -266.047C24.5851 -132.088 137.158 -6.16644 256.032 100.75C365.296 198.945 477.33 277.946 590.516 327.505C691.136 371.513 792.816 390.86 883.881 387.81C967.679 384.965 1043.89 364.315 1109.99 337.787C1171.37 313.128 1223.98 283.995 1271.81 258.204C1314.52 235.189 1352.72 215.105 1389.18 203.692C1450.15 184.652 1517.12 202.698 1566.49 246.842C1546.29 200.727 1520.34 157.645 1515.28 118.024C1466.47 68.7731 1404.05 40.086 1342.91 46.9236C1308.61 50.7794 1272.01 62.4324 1232.1 76.5018C1187.79 92.1306 1139.57 110.604 1084.82 124.674C1025.81 139.84 959.165 149.385 887.989 144.09C810.363 138.297 726.324 113.912 644.516 70.2126C553.115 21.3725 464.689 -50.1225 379.907 -136.407C288.599 -229.374 203.947 -336.257 118.755 -449C47.5607 -443.653 -19.4699 -431.486 -59.77 -399.029C-96.2037 -369.605 -103.565 -317.8 -91.2406 -266.047Z" fill="url(#paint4_linear)"/>
<path d="M346.614 460.778C458.332 533.216 572.224 583.53 681.135 600.769C779.822 616.347 876.334 603.991 958.05 573.779C1036.88 544.595 1104.14 500.536 1162.34 454.009C1217.08 410.208 1262.7 365.326 1304.34 325.089C1341.29 289.393 1373.8 258.358 1405.81 236.114C1432.8 217.384 1460.52 205.319 1486.36 204.839C1537.14 203.965 1587.09 249.498 1632.11 305.878C1605.14 255.273 1579.39 208.215 1573.97 166.042C1525.63 108.993 1472.04 63.4946 1414.7 58.8334C1385.83 56.5199 1354.14 63.9573 1322.16 77.5811C1285.53 93.21 1247.07 116.482 1203.72 142.53C1155.44 171.543 1102.28 203.451 1040.42 231.127C974.352 260.671 898.808 284.629 815.773 291.655C727.105 299.126 628.474 285.897 531.367 249.104C423.85 208.335 317.597 139.994 214.468 54.4121C274.267 194.317 371.096 329.579 346.614 460.778Z" fill="url(#paint5_linear)"/>
<path d="M-1.19728 -46.2839C115.967 93.1244 228.54 223.673 346.484 334.223C453.573 434.576 562.224 514.931 671.785 563.48C767.554 605.859 865.07 622.019 950.317 613.399C1029.56 605.345 1100.59 577.463 1161.04 543.498C1218.22 511.367 1266.01 474.625 1309.43 441.14C1348.32 411.167 1382.41 384.502 1415.81 366.766C1444.31 351.651 1474.03 343.785 1500.45 347.915C1527.57 352.182 1554.09 368.702 1578.09 391.546C1594.77 357.255 1600.05 319.622 1588.52 282.041C1537.31 228.42 1471.71 195.826 1406.93 202.355C1370.55 206.039 1331.51 218.515 1288.89 234.161C1241.1 251.709 1188.81 273.113 1128.84 290.849C1063.48 310.18 989.149 324.678 907.842 323.804C818.933 322.793 720.673 302.228 623.269 258.701C514.395 209.964 406.935 133.859 304.456 38.5778C193.649 -64.5347 91.7644 -186.138 -7.87059 -316.207C-41.9435 -289.936 -49.7136 -243.838 -40.8468 -198.219C-30.9948 -147.768 -8.5212 -97.4888 -1.19728 -46.2839Z" fill="url(#paint6_linear)"/>
<defs>
<linearGradient id="paint0_linear" x1="818.126" y1="565.484" x2="620.25" y2="-374.553" gradientUnits="userSpaceOnUse">
<stop stop-color="#6378FE"/>
<stop offset="1" stop-color="#34447A"/>
</linearGradient>
<linearGradient id="paint1_linear" x1="1066.16" y1="382.987" x2="1079.62" y2="21.9013" gradientUnits="userSpaceOnUse">
<stop stop-color="#6378FE"/>
<stop offset="1" stop-color="#2B3D69"/>
</linearGradient>
<linearGradient id="paint2_linear" x1="838.684" y1="393.102" x2="934.108" y2="-52.4447" gradientUnits="userSpaceOnUse">
<stop stop-color="#6378FE"/>
<stop offset="1" stop-color="#34447A"/>
</linearGradient>
<linearGradient id="paint3_linear" x1="1151.58" y1="344.754" x2="1261.38" y2="0.543347" gradientUnits="userSpaceOnUse">
<stop stop-color="#6378FE"/>
<stop offset="1" stop-color="#34447A"/>
</linearGradient>
<linearGradient id="paint4_linear" x1="701.127" y1="377.76" x2="757.684" y2="-402.701" gradientUnits="userSpaceOnUse">
<stop stop-color="#6378FE"/>
<stop offset="1" stop-color="#2B3D69"/>
</linearGradient>
<linearGradient id="paint5_linear" x1="976.978" y1="590.189" x2="919.975" y2="-12.3297" gradientUnits="userSpaceOnUse">
<stop stop-color="#6378FE"/>
<stop offset="1" stop-color="#34447A"/>
</linearGradient>
<linearGradient id="paint6_linear" x1="670.778" y1="584.496" x2="794.553" y2="-187.578" gradientUnits="userSpaceOnUse">
<stop stop-color="#6378FE"/>
<stop offset="1" stop-color="#2B3D69"/>
</linearGradient>
</defs>
</svg>
