<svg width="31" height="38" viewBox="0 0 31 38" fill="none" xmlns="http://www.w3.org/2000/svg">
<path d="M29.6024 17.0307C29.7112 16.9204 29.8155 16.8046 29.9146 16.683C30.7291 15.6833 31.1055 14.4263 30.9745 13.1435C30.8435 11.8607 30.2208 10.7057 29.2211 9.89128C28.8106 9.55683 28.3562 9.29762 27.8749 9.11574C28.0955 8.47514 28.1851 7.77862 28.1118 7.06151C27.8414 4.41342 25.4672 2.47917 22.8189 2.74948C22.694 2.76222 22.5714 2.7811 22.4499 2.80303C20.6126 1.10909 18.1769 0.0553955 15.5 0C12.823 0.0553955 10.3873 1.10909 8.55013 2.80303C8.4286 2.7811 8.30596 2.76222 8.1811 2.74948C5.53278 2.4791 3.15855 4.41342 2.88816 7.06151C2.81492 7.77862 2.90453 8.47514 3.12508 9.11574C2.64385 9.29762 2.18943 9.55683 1.77892 9.89128C0.779211 10.7057 0.156531 11.8607 0.0255219 13.1435C-0.105487 14.4262 0.270876 15.6833 1.08537 16.683C1.18446 16.8046 1.28881 16.9204 1.3976 17.0307C0.656942 17.8031 0.195856 18.7928 0.085361 19.8742C-0.0456478 21.157 0.330715 22.4141 1.14521 23.4137C1.88223 24.3184 2.89853 24.9129 4.03562 25.1151C3.93283 26.3642 4.30904 27.5832 5.10295 28.5578C5.91736 29.5575 7.07874 30.1281 8.35513 30.3112C8.80815 30.3761 9.39906 30.3135 9.66515 30.2681C9.87843 31.485 10.4566 32.6801 11.3483 33.5718L15.5 37.9178L19.6517 33.5718C20.5435 32.6801 21.1216 31.485 21.3349 30.2681C21.6009 30.3135 22.1919 30.3761 22.6449 30.3112C23.9213 30.1281 25.0826 29.5575 25.8971 28.5578C26.691 27.5833 27.0672 26.3642 26.9644 25.1151C28.1015 24.9129 29.1178 24.3183 29.8548 23.4137C30.6693 22.414 31.0456 21.157 30.9146 19.8742C30.8042 18.7928 30.3431 17.803 29.6024 17.0307ZM23.0446 4.95967C24.7449 4.82607 25.7647 5.94738 25.9016 7.28717C25.959 7.84979 25.8314 8.38908 25.5693 8.84572C24.5434 8.97429 23.6047 9.41856 22.8632 10.1195C22.4274 10.0445 22.0158 9.85906 21.6635 9.57209C21.1239 9.13248 20.7878 8.50905 20.7171 7.81668C20.5711 6.38729 21.6152 5.10571 23.0446 4.95967ZM10.7762 3.84147C12.1069 2.86323 13.7364 2.26988 15.5 2.22359C17.2635 2.26988 18.8929 2.86323 20.2237 3.84147C19.0317 4.8357 18.3376 6.38544 18.5069 8.04241C18.6036 8.9891 18.9688 9.86573 19.5549 10.5876C19.763 10.844 19.9983 11.0812 20.2603 11.2946C20.67 11.6284 21.1232 11.8875 21.6034 12.0694C21.3799 12.721 21.2975 13.4187 21.3696 14.1244C21.48 15.2058 21.9411 16.1955 22.6818 16.9679C22.573 17.0782 22.4687 17.194 22.3696 17.3156C21.5757 18.2901 21.1995 19.5092 21.3023 20.7583C20.1652 20.9604 19.1489 21.5551 18.4119 22.4597C18.2244 22.6897 18.0613 22.9339 17.9212 23.1883L15.5 20.7672L13.0788 23.1883C12.9386 22.9339 12.7755 22.6897 12.5881 22.4597C11.8511 21.555 10.8348 20.9604 9.69773 20.7583C9.8006 19.5092 9.42431 18.2901 8.63041 17.3156C8.53132 17.1939 8.42697 17.0782 8.31818 16.9679C9.05883 16.1955 9.51992 15.2058 9.63041 14.1244C9.70247 13.4187 9.62012 12.721 9.39661 12.0694C9.87681 11.8875 10.33 11.6284 10.7397 11.2946C11.0017 11.0812 11.237 10.844 11.4451 10.5876C12.0312 9.86565 12.3965 8.9891 12.4931 8.04241C12.6623 6.38544 11.9682 4.8357 10.7762 3.84147ZM5.09835 7.28717C5.23521 5.94746 6.25499 4.82614 7.95537 4.95967C9.38469 5.10564 10.4288 6.38729 10.2829 7.81661C10.2121 8.50898 9.87599 9.1324 9.3364 9.57201C8.98418 9.85899 8.57264 10.0444 8.13674 10.1194C7.39519 9.41841 6.45651 8.97421 5.43065 8.84565C5.16849 8.38908 5.04096 7.84979 5.09835 7.28717ZM2.23571 13.3692C2.30644 12.6768 2.64259 12.0533 3.18217 11.6138C3.65148 11.2314 4.2061 10.9606 5.09265 11.0417C6.52197 11.1877 7.56612 12.4693 7.42015 13.8986C7.34083 14.6754 6.92574 15.3379 6.33416 15.7579C6.02615 15.662 5.70645 15.5957 5.37822 15.5622C4.68496 15.4913 3.99955 15.57 3.35784 15.7847C2.59637 15.2623 2.13544 14.3506 2.23571 13.3692ZM4.74036 22.9659C3.31104 22.8199 2.14951 21.5293 2.29555 20.1C2.44159 18.6706 3.72332 17.6266 5.15249 17.7725C6.58181 17.9184 7.62596 19.2001 7.47999 20.6294C7.47103 20.7172 7.4577 20.8034 7.44037 20.888C6.8482 21.0681 6.29076 21.3633 5.79643 21.766C5.37385 22.1103 5.01956 22.516 4.74036 22.9659ZM9.69818 27.9702C9.35003 28.0914 8.97108 28.1407 8.58072 28.101C7.15139 27.955 6.10725 26.6734 6.25322 25.244C6.39008 23.9043 7.40904 22.7976 9.11016 22.9165C10.2353 23.0315 11.1213 23.8503 11.3764 24.8907C10.5284 25.7387 9.93509 26.8221 9.69818 27.9702ZM18.0807 32.0008L15.5 34.7757L12.9193 32.0008C11.4203 30.5019 11.4203 27.9889 12.9193 26.4898L15.5 23.9092L18.0807 26.4899C19.5796 27.9889 19.5796 30.5019 18.0807 32.0008ZM22.4192 28.1009C22.0289 28.1407 21.6499 28.0913 21.3018 27.9701C21.0648 26.8221 20.4716 25.7387 19.6234 24.8906C19.8786 23.8502 20.7645 23.0314 21.8897 22.9165C23.5908 22.7975 24.6098 23.9042 24.7466 25.244C24.8926 26.6734 23.8485 27.9549 22.4192 28.1009ZM26.2596 22.9659C25.9804 22.516 25.6261 22.1103 25.2035 21.7661C24.7092 21.3634 24.1517 21.0682 23.5596 20.8881C23.5423 20.8034 23.5289 20.7172 23.5199 20.6295C23.374 19.2002 24.418 17.9185 25.8474 17.7725C27.2766 17.6266 28.5584 18.6706 28.7044 20.1C28.8503 21.5293 27.6889 22.8198 26.2596 22.9659ZM27.6421 15.7847C27.0004 15.57 26.315 15.4913 25.6217 15.5622C25.2934 15.5957 24.9737 15.6619 24.6658 15.7579C24.0742 15.3379 23.6591 14.6754 23.5798 13.8986C23.4338 12.4693 24.4779 11.1877 25.9073 11.0417C26.7938 10.9606 27.3485 11.2314 27.8178 11.6138C28.3573 12.0534 28.6935 12.6768 28.7642 13.3692C28.8644 14.3506 28.4036 15.2623 27.6421 15.7847Z" fill="#2B3D69"/>
</svg>
