<svg width="28" height="42" viewBox="0 0 28 42" fill="none" xmlns="http://www.w3.org/2000/svg">
<path d="M27.9371 19.1249V13.7038H26.4443V13.3005C26.4443 8.89071 24.3147 5.17773 20.2523 2.61565C16.7987 0.437473 13.9686 0 13.9686 0C13.9686 0 11.1522 0.410156 7.68485 2.61557C3.63234 5.19323 1.4928 8.89063 1.4928 13.3005V13.7037H0V19.1248C0 23.7061 2.06768 27.5986 5.99304 30.4461C4.5657 31.413 2.93655 32.0703 1.20463 32.359L0.176449 32.5303V34.2666C0.176449 34.2666 1.18461 36.4676 3.31644 38.3154C5.25566 39.9963 8.67784 42 13.9686 42C19.2594 42 22.6816 39.9964 24.6207 38.3155C26.7525 36.4677 27.7607 34.2667 27.7607 34.2667V32.5304L26.7325 32.359C25.0007 32.0704 23.3715 31.4131 21.9442 30.4462C25.8695 27.5987 27.9371 23.7062 27.9371 19.1249ZM13.9686 39.5391C10.3784 39.5391 7.36698 38.5275 5.01785 36.5327C4.13462 35.7827 3.51299 35.025 3.11186 34.4539C4.98364 33.9346 6.72353 33.048 8.23684 31.8511C10.0495 32.828 11.7267 33.3979 12.7382 33.6892V36.75H15.1992V33.6892C16.2106 33.3978 17.8878 32.8279 19.7005 31.851C21.2145 33.0486 22.9555 33.9355 24.8285 34.4547C23.6317 36.1595 20.4423 39.5391 13.9686 39.5391ZM19.7359 28.9769C17.2668 30.5639 14.7493 31.2761 13.9675 31.4718C13.1919 31.2792 10.7235 30.5836 8.26063 29.0149C4.4123 26.5636 2.46102 23.2362 2.46102 19.1249V16.1647H5.59125C7.87032 16.1647 10.1085 15.5457 12.0636 14.3747L13.9686 13.2336L15.8736 14.3747C17.8288 15.5457 20.067 16.1647 22.3461 16.1647H25.4762V19.1249C25.4762 23.214 23.5449 26.5287 19.7359 28.9769ZM23.9835 13.7037H22.3461C20.5123 13.7037 18.7114 13.2056 17.1382 12.2634L15.1725 11.086V2.90801C16.1658 3.24524 17.5484 3.81101 18.9304 4.6912C22.2834 6.82705 23.9836 9.72357 23.9836 13.3005V13.7037H23.9835ZM8.94813 4.72894C10.3175 3.84768 11.7044 3.27428 12.7115 2.92852V11.118L10.799 12.2635C9.22581 13.2057 7.42498 13.7038 5.59117 13.7038H3.95374V13.3005C3.95374 9.74548 5.63415 6.86159 8.94813 4.72894Z" fill="#2B3D69"/>
<path d="M23.1553 20.9163V18.1055H4.78296V20.9163L13.9691 25.7511L23.1553 20.9163ZM18.5362 20.5664L13.9691 22.9701L9.40214 20.5664H18.5362Z" fill="#2B3D69"/>
</svg>
