<svg width="30" height="30" viewBox="0 0 30 30" fill="none" xmlns="http://www.w3.org/2000/svg">
<path d="M15.0015 28.3194L20.9446 26.8186C24.3369 24.0018 26.4976 19.753 26.4976 14.9991C26.4976 7.66648 21.3582 1.53424 14.4851 0.0078125C6.43928 0.27916 0 6.88713 0 14.9991C0 19.1658 1.69922 22.9354 4.44211 25.6535L15.0015 28.3194Z" fill="#CBE2FF"/>
<path d="M26.1865 15C26.1865 19.9169 23.8204 24.2807 20.1651 27.0163L25.5575 25.6546C28.3006 22.9364 30.0001 19.1668 30.0001 15C30.0001 6.71572 23.2844 0 15.0001 0C14.3541 0 13.7177 0.0408984 13.0933 0.120117C20.4772 1.05691 26.1865 7.36172 26.1865 15Z" fill="#BED8FB"/>
<path d="M18.728 5.68061C18.728 4.91449 18.107 4.29346 17.3408 4.29346H12.5606C10.7975 4.29346 9.36816 5.72279 9.36816 7.48594V11.0304H20.6304V7.53621C20.6304 6.7701 20.0094 6.14906 19.2433 6.14906H19.1965C18.9378 6.14906 18.728 5.93936 18.728 5.68061Z" fill="#365E7D"/>
<path d="M19.2434 6.14912H19.1967C18.9379 6.14912 18.7282 5.93936 18.7282 5.68061C18.7282 4.91449 18.1071 4.29346 17.341 4.29346H16.8169V11.0305H20.6305V7.53621C20.6306 6.77022 20.0095 6.14912 19.2434 6.14912Z" fill="#2B4D66"/>
<path d="M24.9051 21.8177C24.5383 21.4555 24.0847 21.1754 23.5697 21.0124L19.4745 19.7158L15.001 19.5586L10.5256 19.7158L6.43045 21.0124C5.04506 21.451 4.10352 22.7367 4.10352 24.1898V25.3086C6.72787 28.0818 10.3995 29.8536 14.4853 29.9914C19.0631 28.9747 22.8718 25.9147 24.9051 21.8177Z" fill="#4A80AA"/>
<path d="M25.8965 25.3085V24.1897C25.8965 23.1622 25.4254 22.2189 24.6599 21.5991C22.4854 26.0303 18.1899 29.232 13.0967 29.8794C13.7114 29.9573 14.3376 29.9988 14.9732 29.9999C15.5839 29.999 16.1866 29.9636 16.7793 29.8955C20.3553 29.4729 23.546 27.7924 25.8965 25.3085Z" fill="#407093"/>
<path d="M15.3396 29.7754C16.2471 27.9736 18.6104 22.8574 17.9365 19.6616L15.0009 18.519L12.0625 19.6616C11.3679 22.9561 13.9006 28.2911 14.7392 29.9325C14.9409 29.8841 15.1411 29.8317 15.3396 29.7754Z" fill="#E4F6FF"/>
<path d="M16.8864 28.3467L15.6962 23.6641H14.3036L13.1162 28.3339L14.5845 29.9685C14.9572 29.8831 15.3247 29.7842 15.6866 29.6722L16.8864 28.3467Z" fill="#E28086"/>
<path d="M14.6078 29.9943C14.7293 29.9974 14.8512 29.9996 14.9734 29.9998C15.1149 29.9996 15.256 29.9971 15.3966 29.9932L16.1529 29.1577C15.5576 29.3665 14.9453 29.5389 14.3184 29.6721L14.6078 29.9943Z" fill="#DD636E"/>
<path d="M17.5066 19.2295V16.5889H12.4922V19.2295C12.4922 20.6141 14.9994 22.1267 14.9994 22.1267C14.9994 22.1267 17.5066 20.6141 17.5066 19.2295Z" fill="#FFDDCE"/>
<path d="M20.6304 10.5656H19.6719C19.1388 10.5656 18.7067 10.1334 18.7067 9.60034V9.07212C18.7067 8.37772 18.0273 7.88677 17.368 8.10468C15.8303 8.61292 14.17 8.61304 12.6322 8.10503L12.6304 8.10444C11.9711 7.88665 11.2919 8.37761 11.2919 9.07194V9.6004C11.2919 10.1335 10.8597 10.5656 10.3266 10.5656H9.36816V12.144C9.36816 12.5473 9.69512 12.8743 10.0985 12.8743C10.2257 12.8743 10.3293 12.974 10.3373 13.101C10.4913 15.5425 12.519 17.4753 14.9993 17.4753C17.4796 17.4753 19.5073 15.5425 19.6613 13.101C19.6694 12.974 19.7729 12.8743 19.9002 12.8743C20.3035 12.8743 20.6305 12.5474 20.6305 12.144V10.5656H20.6304Z" fill="#FFDDCE"/>
<path d="M19.672 10.5654C19.1389 10.5654 18.7068 10.1332 18.7068 9.60016V9.07193C18.7068 8.37754 18.0274 7.88658 17.3681 8.10449C17.186 8.16467 17.0021 8.21717 16.8169 8.2631V13.4763C16.7912 15.1725 15.8618 16.6487 14.4893 17.4465C14.6569 17.4647 14.8269 17.475 14.9994 17.475C17.4797 17.475 19.5074 15.5422 19.6614 13.1007C19.6694 12.9738 19.773 12.874 19.9002 12.874C20.3035 12.874 20.6305 12.5471 20.6305 12.1437V10.5653H19.672V10.5654Z" fill="#FFCBBE"/>
<path d="M12.4917 18.519L10.5254 20.1167L12.5874 22.6663C12.8383 22.9105 13.2331 22.9255 13.5018 22.7011L15.0525 21.4058L12.4917 18.519Z" fill="#F4FBFF"/>
<path d="M17.5073 18.519L15.0527 21.4058L16.5102 22.6519C16.7772 22.8802 17.1739 22.8687 17.4272 22.6254L19.4745 20.1167L17.5073 18.519Z" fill="#F4FBFF"/>
<path d="M12.4918 18.519L9.60573 19.937C9.386 20.0449 9.29776 20.3122 9.40997 20.5297L9.9754 21.626C10.1219 21.9101 10.0679 22.2563 9.84169 22.4821C9.72526 22.5983 9.59917 22.7241 9.48989 22.8332C9.2943 23.0285 9.22405 23.3169 9.31018 23.5796C9.99286 25.6606 13.2784 28.8429 14.5219 29.9943C14.6055 29.9965 14.6893 29.998 14.7732 29.999C13.8715 28.2451 10.6762 21.5817 12.4918 18.519Z" fill="#365E7D"/>
<path d="M20.1573 22.482C19.9311 22.2562 19.8771 21.91 20.0236 21.626L20.5891 20.5297C20.7013 20.3121 20.613 20.0448 20.3933 19.9369L17.5072 18.519C19.3223 21.5809 16.1293 28.2414 15.2266 29.9976C15.3114 29.9961 15.3961 29.994 15.4806 29.9912C16.7266 28.8372 20.0068 25.6588 20.6888 23.5796C20.775 23.317 20.7047 23.0285 20.5091 22.8333C20.3999 22.7241 20.2738 22.5982 20.1573 22.482Z" fill="#365E7D"/>
<path d="M15.0528 21.4058L13.5259 22.681L14.3039 23.6643H15.6965L16.4746 22.623L15.0528 21.4058Z" fill="#DD636E"/>
</svg>
